<svg class="iconLeftSlogan" viewBox="36.239999999999995 122.16 228.6 54.6" xmlns="http://www.w3.org/2000/svg" data-v-fde0c5aa="" style="max-height: 500px" width="228.6" height="54.6"><defs data-v-fde0c5aa=""/><defs data-v-fde0c5aa=""/><g transform="matrix(2.1580357551574707,0,0,2.1580357551574707,99.89532343422314,127.05178642030569)" fill="#251516" id="0faee27b-ca8f-4ff2-a538-483472d794d4" data-v-fde0c5aa=""><path d="M3.88 10.65L3.88 10.65Q3.32 10.65 2.77 10.54Q2.21 10.43 1.77 10.08Q1.33 9.73 1.05 9.09Q0.77 8.44 0.77 7.36L0.77 7.36L0.77 3.22L3.11 3.22L3.11 6.52Q3.11 7.56 3.44 8.10Q3.78 8.64 4.41 8.64L4.41 8.64Q4.86 8.64 5.17 8.44Q5.47 8.25 5.66 7.90Q5.85 7.56 5.94 7.08Q6.02 6.61 6.02 6.05L6.02 6.05L6.02 3.22L8.54 3.22L8.54 10.50L6.65 10.50L6.23 9.13Q6.23 9.13 6.10 9.37Q5.98 9.60 5.70 9.89Q5.42 10.18 4.97 10.42Q4.52 10.65 3.88 10.65ZM15.30 3.04L15.18 5.22Q14.36 5.04 13.86 5.24Q13.36 5.43 13.07 5.81Q12.78 6.19 12.68 6.64Q12.57 7.10 12.57 7.41L12.57 7.41L12.57 10.50L10.08 10.50L10.08 3.22L12.00 3.22L12.38 4.55Q12.38 4.55 12.50 4.31Q12.63 4.07 12.96 3.79Q13.30 3.51 13.87 3.28Q14.43 3.04 15.30 3.04L15.30 3.04ZM19.63 8.67L19.63 8.67Q19.68 8.67 19.85 8.68Q20.02 8.69 20.16 8.67L20.16 8.67L20.16 10.56Q19.96 10.60 19.77 10.62Q19.57 10.64 19.42 10.65L19.42 10.65Q19.24 10.67 19.05 10.65L19.05 10.65Q18.52 10.65 18.05 10.58Q17.58 10.50 17.23 10.23Q16.87 9.97 16.66 9.46Q16.45 8.96 16.45 8.09L16.45 8.09L16.45 1.55L18.97 1.55L18.97 8.04Q19.00 8.39 19.16 8.53Q19.32 8.67 19.63 8.67ZM21.39 7.66L21.39 5.81L25.19 5.81L25.19 7.66L21.39 7.66ZM31.16 3.04L31.16 3.04Q31.99 3.04 32.61 3.36Q33.24 3.68 33.66 4.23Q34.08 4.77 34.29 5.47Q34.51 6.17 34.51 6.93L34.51 6.93Q34.51 7.69 34.29 8.37Q34.08 9.04 33.66 9.55Q33.24 10.05 32.61 10.35Q31.99 10.65 31.16 10.65L31.16 10.65Q30.56 10.65 30.12 10.48Q29.68 10.30 29.39 10.09L29.39 10.09Q29.04 9.84 28.78 9.53L28.78 9.53L28.42 10.50L26.32 10.50L26.32 1.55L28.84 1.55L28.84 4.21Q29.09 3.88 29.46 3.63L29.46 3.63Q29.76 3.40 30.19 3.22Q30.62 3.04 31.16 3.04ZM30.37 8.75L30.37 8.75Q30.62 8.75 30.88 8.67Q31.15 8.60 31.37 8.39Q31.58 8.19 31.72 7.83Q31.86 7.46 31.86 6.89L31.86 6.89Q31.86 6.31 31.72 5.94Q31.58 5.57 31.37 5.35Q31.15 5.14 30.88 5.05Q30.62 4.97 30.37 4.97L30.37 4.97Q30.11 4.97 29.84 5.05Q29.57 5.14 29.34 5.35Q29.12 5.57 28.98 5.94Q28.84 6.31 28.84 6.89L28.84 6.89Q28.84 7.46 28.98 7.83Q29.12 8.19 29.34 8.39Q29.57 8.60 29.84 8.67Q30.11 8.75 30.37 8.75ZM38.81 10.65L38.81 10.65Q38.25 10.65 37.70 10.54Q37.14 10.43 36.70 10.08Q36.26 9.73 35.98 9.09Q35.70 8.44 35.70 7.36L35.70 7.36L35.70 3.22L38.04 3.22L38.04 6.52Q38.04 7.56 38.37 8.10Q38.71 8.64 39.34 8.64L39.34 8.64Q39.79 8.64 40.10 8.44Q40.40 8.25 40.59 7.90Q40.78 7.56 40.87 7.08Q40.95 6.61 40.95 6.05L40.95 6.05L40.95 3.22L43.47 3.22L43.47 10.50L41.58 10.50L41.16 9.13Q41.16 9.13 41.03 9.37Q40.91 9.60 40.63 9.89Q40.35 10.18 39.90 10.42Q39.45 10.65 38.81 10.65ZM48.43 3.05L48.43 3.05Q48.86 3.05 49.29 3.10Q49.73 3.15 50.09 3.21L50.09 3.21Q50.51 3.28 50.90 3.36L50.90 3.36L50.90 5.31Q50.60 5.26 50.20 5.19Q49.81 5.12 49.41 5.10Q49.01 5.07 48.64 5.11Q48.26 5.15 47.96 5.35Q47.67 5.54 47.49 5.91Q47.31 6.27 47.31 6.89L47.31 6.89Q47.31 7.53 47.48 7.92Q47.66 8.32 47.94 8.52Q48.23 8.72 48.61 8.77Q48.99 8.82 49.39 8.79Q49.78 8.75 50.18 8.66Q50.57 8.57 50.90 8.50L50.90 8.50L50.90 10.30Q50.51 10.42 50.09 10.49L50.09 10.49Q49.73 10.56 49.29 10.61Q48.85 10.65 48.41 10.65L48.41 10.65Q47.87 10.65 47.21 10.49Q46.55 10.32 45.98 9.90Q45.42 9.48 45.04 8.75Q44.66 8.02 44.66 6.89L44.66 6.89Q44.66 5.75 45.04 5.02Q45.42 4.28 45.98 3.84Q46.55 3.40 47.21 3.23Q47.87 3.05 48.43 3.05ZM59.56 3.22L56.98 6.99Q57.27 7.39 57.61 7.84Q57.95 8.29 58.29 8.75Q58.63 9.21 58.96 9.66Q59.29 10.11 59.58 10.50L59.58 10.50L56.80 10.50L54.98 8.08L54.45 8.08L54.45 10.50L51.97 10.50L51.97 1.34L54.45 1.34L54.45 5.89L54.96 5.89Q54.96 5.89 55.10 5.70Q55.24 5.50 55.45 5.20Q55.65 4.90 55.89 4.56Q56.13 4.21 56.32 3.91Q56.52 3.61 56.66 3.42Q56.80 3.22 56.80 3.22L56.80 3.22L59.56 3.22ZM64.65 10.65L64.65 10.65Q63.32 10.65 62.45 10.31Q61.59 9.97 61.08 9.43Q60.56 8.89 60.36 8.21Q60.16 7.53 60.16 6.86L60.16 6.86Q60.16 6.19 60.36 5.51Q60.56 4.83 61.02 4.28Q61.47 3.72 62.21 3.38Q62.94 3.04 63.99 3.04L63.99 3.04Q65.07 3.04 65.80 3.38Q66.53 3.72 66.96 4.28Q67.40 4.83 67.58 5.51Q67.76 6.19 67.76 6.86L67.76 6.86L67.76 7.56L62.72 7.56Q62.73 7.73 62.85 7.97Q62.97 8.22 63.22 8.44Q63.48 8.65 63.88 8.81Q64.27 8.96 64.85 8.96L64.85 8.96Q65.38 8.96 65.82 8.87Q66.26 8.78 66.57 8.67L66.57 8.67Q66.93 8.53 67.20 8.36L67.20 8.36L67.20 10.07Q67.20 10.08 66.98 10.17Q66.77 10.26 66.41 10.37Q66.05 10.47 65.59 10.56Q65.13 10.65 64.65 10.65ZM62.72 6.13L65.49 6.13Q65.49 5.89 65.42 5.63Q65.35 5.36 65.18 5.14Q65.02 4.91 64.75 4.77Q64.48 4.62 64.09 4.62L64.09 4.62Q63.70 4.62 63.43 4.77Q63.17 4.91 63.01 5.14Q62.86 5.36 62.79 5.63Q62.72 5.89 62.72 6.13L62.72 6.13ZM73.07 8.97L73.07 8.97Q73.26 8.97 73.46 8.96Q73.65 8.95 73.81 8.92L73.81 8.92Q73.99 8.89 74.16 8.85L74.16 8.85L74.13 10.43Q73.89 10.49 73.63 10.54L73.63 10.54Q73.39 10.58 73.07 10.62Q72.76 10.65 72.39 10.65L72.39 10.65Q71.69 10.61 71.13 10.36L71.13 10.36Q70.90 10.25 70.67 10.08Q70.45 9.91 70.27 9.66Q70.10 9.41 69.99 9.08Q69.89 8.75 69.89 8.30L69.89 8.30L69.89 5.53L68.46 5.53L68.46 3.75L69.93 3.75L70.38 1.46L72.39 1.46L72.39 3.75L74.19 3.75L74.19 5.53L72.42 5.53L72.42 8.33Q72.45 8.68 72.61 8.83Q72.77 8.97 73.07 8.97Z"/></g><defs data-v-fde0c5aa=""/><g transform="matrix(0.5503333806991577,0,0,0.5503333806991577,36.81742160789093,122.5102977801108)" fill="#CB7A80" stroke="none" id="60509f66-8a27-4d56-80da-13a0cbeee750" data-v-fde0c5aa=""><path d="M36.116 63.555a6.187 6.187 0 01-6.187-6.186V37.684c0-17.668 14.376-32.043 32.045-32.043 17.668 0 32.041 14.375 32.041 32.043a6.186 6.186 0 11-12.372 0c0-10.846-8.824-19.671-19.67-19.671-10.848 0-19.672 8.825-19.672 19.671v19.685a6.184 6.184 0 01-6.185 6.186z"/><path d="M37.825 94.261c-17.668 0-32.042-14.373-32.042-32.042a6.186 6.186 0 0112.373 0c0 10.845 8.824 19.67 19.67 19.67 10.847 0 19.672-8.825 19.672-19.67V42.533a6.187 6.187 0 1112.372 0v19.686c-.002 17.669-14.376 32.042-32.045 32.042z"/></g><defs data-v-fde0c5aa=""/><g transform="matrix(0.5529138445854187,0,0,0.5529138445854187,101.11467975541659,156.91589522407003)" fill="#251516" id="030df9d4-08e1-46be-8914-1262b17ca970" data-v-fde0c5aa=""><path d="M7.77 12.12L7.77 12.29Q7.77 13.16 7.48 13.82Q7.20 14.49 6.72 14.95Q6.24 15.40 5.61 15.64Q4.97 15.88 4.28 15.88L4.28 15.88Q3.58 15.88 2.95 15.64Q2.32 15.40 1.85 14.95Q1.37 14.49 1.08 13.82Q0.80 13.16 0.80 12.29L0.80 12.29L0.80 12.12Q0.80 11.27 1.08 10.61Q1.37 9.94 1.85 9.48Q2.34 9.02 2.97 8.78Q3.60 8.54 4.28 8.54L4.28 8.54Q4.97 8.54 5.60 8.78Q6.23 9.02 6.71 9.48Q7.20 9.94 7.48 10.61Q7.77 11.27 7.77 12.12L7.77 12.12ZM4.28 14.84L4.28 14.84Q4.79 14.84 5.21 14.66Q5.64 14.49 5.96 14.15Q6.29 13.82 6.47 13.35Q6.65 12.88 6.65 12.29L6.65 12.29L6.65 12.12Q6.65 11.56 6.47 11.09Q6.29 10.63 5.96 10.29Q5.64 9.95 5.21 9.77Q4.77 9.58 4.28 9.58L4.28 9.58Q3.79 9.58 3.36 9.77Q2.93 9.95 2.60 10.29Q2.28 10.63 2.10 11.09Q1.92 11.56 1.92 12.12L1.92 12.12L1.92 12.29Q1.92 12.88 2.10 13.35Q2.28 13.82 2.60 14.15Q2.93 14.49 3.35 14.66Q3.78 14.84 4.28 14.84ZM16.39 9.74L16.39 8.74L18.91 8.74L18.91 9.66L19.08 9.66Q19.35 9.09 19.84 8.81Q20.33 8.54 20.96 8.54L20.96 8.54Q22.01 8.54 22.65 9.23Q23.30 9.91 23.34 11.23L23.34 11.23L22.19 11.40Q22.19 10.43 21.73 10.00Q21.27 9.58 20.59 9.58L20.59 9.58Q20.16 9.58 19.84 9.74Q19.53 9.91 19.32 10.21Q19.11 10.50 19.01 10.89Q18.91 11.28 18.91 11.73L18.91 11.73L18.91 14.67L20.68 14.67L20.68 15.68L16.23 15.68L16.23 14.67L17.82 14.67L17.82 9.74L16.39 9.74ZM37.63 17.05L37.63 14.62L37.46 14.62Q37.13 15.25 36.55 15.56Q35.97 15.88 35.28 15.88L35.28 15.88Q34.58 15.88 33.96 15.64Q33.35 15.40 32.88 14.95Q32.41 14.50 32.14 13.84Q31.86 13.17 31.86 12.32L31.86 12.32L31.86 12.10Q31.86 11.26 32.14 10.59Q32.42 9.93 32.89 9.47Q33.35 9.02 33.96 8.78Q34.58 8.54 35.25 8.54L35.25 8.54Q36.01 8.54 36.58 8.87Q37.14 9.20 37.46 9.83L37.46 9.83L37.63 9.83L37.63 8.74L38.72 8.74L38.72 17.39Q38.72 17.86 38.42 18.17Q38.12 18.48 37.65 18.48L37.65 18.48L33.12 18.48L33.12 17.47L37.25 17.47Q37.63 17.47 37.63 17.05L37.63 17.05ZM35.31 14.84L35.31 14.84Q35.80 14.84 36.22 14.66Q36.64 14.48 36.95 14.14Q37.27 13.80 37.45 13.33Q37.63 12.87 37.63 12.29L37.63 12.29L37.63 12.12Q37.63 11.56 37.45 11.09Q37.27 10.63 36.95 10.29Q36.64 9.95 36.21 9.77Q35.78 9.58 35.31 9.58L35.31 9.58Q34.82 9.58 34.39 9.76Q33.96 9.94 33.65 10.28Q33.33 10.61 33.16 11.07Q32.98 11.54 32.98 12.10L32.98 12.10L32.98 12.32Q32.98 12.91 33.16 13.37Q33.33 13.83 33.65 14.16Q33.96 14.49 34.38 14.66Q34.80 14.84 35.31 14.84ZM52.96 14.59L52.96 14.50L52.79 14.50Q52.46 15.20 51.86 15.54Q51.27 15.88 50.61 15.88L50.61 15.88Q49.92 15.88 49.34 15.64Q48.75 15.41 48.31 14.96Q47.87 14.50 47.61 13.85Q47.36 13.19 47.36 12.32L47.36 12.32L47.36 12.10Q47.36 11.24 47.61 10.58Q47.87 9.93 48.31 9.47Q48.75 9.02 49.34 8.78Q49.92 8.54 50.58 8.54L50.58 8.54Q51.30 8.54 51.88 8.86Q52.46 9.17 52.79 9.83L52.79 9.83L52.96 9.83L52.96 8.74L54.05 8.74L54.05 14.25Q54.05 14.67 54.43 14.67L54.43 14.67L54.78 14.67L54.78 15.68L54.04 15.68Q53.56 15.68 53.26 15.37Q52.96 15.06 52.96 14.59L52.96 14.59ZM50.72 14.84L50.72 14.84Q51.21 14.84 51.63 14.66Q52.04 14.48 52.33 14.14Q52.63 13.80 52.79 13.33Q52.96 12.87 52.96 12.29L52.96 12.29L52.96 12.12Q52.96 11.56 52.79 11.09Q52.63 10.63 52.33 10.29Q52.02 9.95 51.61 9.77Q51.20 9.58 50.72 9.58L50.72 9.58Q50.23 9.58 49.83 9.76Q49.42 9.94 49.12 10.27Q48.82 10.60 48.65 11.07Q48.48 11.54 48.48 12.10L48.48 12.10L48.48 12.32Q48.48 13.51 49.11 14.17Q49.73 14.84 50.72 14.84ZM64.58 12.07L64.58 15.68L63.49 15.68L63.49 8.74L64.58 8.74L64.58 9.91L64.75 9.91Q65.39 8.54 66.99 8.54L66.99 8.54Q68.19 8.54 68.91 9.29Q69.62 10.04 69.62 11.54L69.62 11.54L69.62 15.68L68.53 15.68L68.53 11.76Q68.53 10.67 68.04 10.12Q67.55 9.58 66.71 9.58L66.71 9.58Q65.72 9.58 65.15 10.25Q64.58 10.93 64.58 12.07L64.58 12.07ZM81.21 6.66L81.21 6.66Q81.21 6.26 81.50 5.97Q81.79 5.68 82.19 5.68L82.19 5.68Q82.60 5.68 82.89 5.97Q83.17 6.26 83.17 6.66L83.17 6.66Q83.17 7.07 82.89 7.36Q82.60 7.64 82.19 7.64L82.19 7.64Q81.79 7.64 81.50 7.36Q81.21 7.07 81.21 6.66ZM79.23 15.68L79.23 14.67L81.66 14.67L81.66 9.74L79.48 9.74L79.48 8.74L82.75 8.74L82.75 14.67L85.02 14.67L85.02 15.68L79.23 15.68ZM95.58 14.67L100.73 14.67L100.73 15.68L94.68 15.68L94.68 13.94L99.64 9.91L99.64 9.74L94.77 9.74L94.77 8.74L100.56 8.74L100.56 10.42L95.58 14.50L95.58 14.67ZM116.59 12.54L110.99 12.54Q111.03 13.58 111.64 14.21Q112.24 14.84 113.32 14.84L113.32 14.84Q113.81 14.84 114.17 14.73Q114.53 14.62 114.79 14.42Q115.05 14.22 115.21 13.96Q115.37 13.71 115.47 13.41L115.47 13.41L116.51 13.69Q116.21 14.66 115.42 15.27Q114.63 15.88 113.29 15.88L113.29 15.88Q112.55 15.88 111.92 15.62Q111.30 15.36 110.85 14.88Q110.40 14.41 110.15 13.75Q109.90 13.09 109.90 12.29L109.90 12.29L109.90 11.96Q109.90 11.23 110.16 10.60Q110.42 9.97 110.88 9.51Q111.34 9.06 111.97 8.80Q112.59 8.54 113.32 8.54L113.32 8.54Q114.17 8.54 114.79 8.86Q115.42 9.17 115.81 9.63Q116.21 10.09 116.40 10.64Q116.59 11.19 116.59 11.65L116.59 11.65L116.59 12.54ZM113.32 9.58L113.32 9.58Q112.85 9.58 112.45 9.72Q112.06 9.87 111.75 10.14Q111.45 10.40 111.27 10.76Q111.08 11.12 111.02 11.54L111.02 11.54L115.50 11.54Q115.47 11.09 115.28 10.72Q115.09 10.36 114.79 10.11Q114.49 9.86 114.11 9.72Q113.72 9.58 113.32 9.58ZM146.37 17.05L146.37 14.42L146.20 14.42Q145.87 15.09 145.32 15.48Q144.77 15.88 143.93 15.88L143.93 15.88Q143.36 15.88 142.88 15.69Q142.39 15.50 142.05 15.12Q141.71 14.74 141.52 14.18Q141.33 13.62 141.33 12.88L141.33 12.88L141.33 8.74L142.42 8.74L142.42 12.74Q142.42 13.83 142.87 14.34Q143.32 14.84 144.24 14.84L144.24 14.84Q145.24 14.84 145.80 14.16Q146.37 13.48 146.37 12.35L146.37 12.35L146.37 8.74L147.46 8.74L147.46 17.39Q147.46 17.86 147.16 18.17Q146.86 18.48 146.38 18.48L146.38 18.48L142.42 18.48L142.42 17.47L145.99 17.47Q146.37 17.47 146.37 17.05L146.37 17.05ZM163.45 12.12L163.45 12.29Q163.45 13.16 163.16 13.82Q162.88 14.49 162.40 14.95Q161.92 15.40 161.29 15.64Q160.65 15.88 159.96 15.88L159.96 15.88Q159.26 15.88 158.63 15.64Q158.00 15.40 157.53 14.95Q157.05 14.49 156.77 13.82Q156.48 13.16 156.48 12.29L156.48 12.29L156.48 12.12Q156.48 11.27 156.77 10.61Q157.05 9.94 157.53 9.48Q158.02 9.02 158.65 8.78Q159.28 8.54 159.96 8.54L159.96 8.54Q160.65 8.54 161.28 8.78Q161.91 9.02 162.39 9.48Q162.88 9.94 163.16 10.61Q163.45 11.27 163.45 12.12L163.45 12.12ZM159.96 14.84L159.96 14.84Q160.47 14.84 160.90 14.66Q161.32 14.49 161.64 14.15Q161.97 13.82 162.15 13.35Q162.33 12.88 162.33 12.29L162.33 12.29L162.33 12.12Q162.33 11.56 162.15 11.09Q161.97 10.63 161.64 10.29Q161.32 9.95 160.89 9.77Q160.45 9.58 159.96 9.58L159.96 9.58Q159.47 9.58 159.04 9.77Q158.61 9.95 158.28 10.29Q157.96 10.63 157.78 11.09Q157.60 11.56 157.60 12.12L157.60 12.12L157.60 12.29Q157.60 12.88 157.78 13.35Q157.96 13.82 158.28 14.15Q158.61 14.49 159.03 14.66Q159.46 14.84 159.96 14.84ZM177.42 12.35L177.42 8.74L178.51 8.74L178.51 15.68L177.42 15.68L177.42 14.42L177.25 14.42Q176.92 15.09 176.37 15.48Q175.83 15.88 174.99 15.88L174.99 15.88Q174.41 15.88 173.93 15.69Q173.45 15.50 173.10 15.12Q172.76 14.74 172.57 14.18Q172.38 13.62 172.38 12.88L172.38 12.88L172.38 8.74L173.47 8.74L173.47 12.74Q173.47 13.83 173.92 14.34Q174.37 14.84 175.29 14.84L175.29 14.84Q176.29 14.84 176.86 14.16Q177.42 13.48 177.42 12.35L177.42 12.35ZM187.64 9.74L187.64 8.74L190.16 8.74L190.16 9.66L190.33 9.66Q190.60 9.09 191.09 8.81Q191.58 8.54 192.21 8.54L192.21 8.54Q193.26 8.54 193.90 9.23Q194.54 9.91 194.59 11.23L194.59 11.23L193.44 11.40Q193.44 10.43 192.98 10.00Q192.51 9.58 191.84 9.58L191.84 9.58Q191.41 9.58 191.09 9.74Q190.78 9.91 190.57 10.21Q190.36 10.50 190.26 10.89Q190.16 11.28 190.16 11.73L190.16 11.73L190.16 14.67L191.93 14.67L191.93 15.68L187.47 15.68L187.47 14.67L189.07 14.67L189.07 9.74L187.64 9.74ZM219.17 15.68L219.17 14.67L221.69 14.67L221.69 6.89L219.25 6.89L219.25 5.88L222.78 5.88L222.78 14.67L225.30 14.67L225.30 15.68L219.17 15.68ZM236.89 6.66L236.89 6.66Q236.89 6.26 237.18 5.97Q237.47 5.68 237.87 5.68L237.87 5.68Q238.28 5.68 238.57 5.97Q238.85 6.26 238.85 6.66L238.85 6.66Q238.85 7.07 238.57 7.36Q238.28 7.64 237.87 7.64L237.87 7.64Q237.47 7.64 237.18 7.36Q236.89 7.07 236.89 6.66ZM234.91 15.68L234.91 14.67L237.34 14.67L237.34 9.74L235.16 9.74L235.16 8.74L238.43 8.74L238.43 14.67L240.70 14.67L240.70 15.68L234.91 15.68ZM251.40 12.07L251.40 15.68L250.31 15.68L250.31 8.74L251.40 8.74L251.40 9.91L251.57 9.91Q252.21 8.54 253.81 8.54L253.81 8.54Q255.01 8.54 255.72 9.29Q256.44 10.04 256.44 11.54L256.44 11.54L256.44 15.68L255.35 15.68L255.35 11.76Q255.35 10.67 254.86 10.12Q254.37 9.58 253.53 9.58L253.53 9.58Q252.53 9.58 251.97 10.25Q251.40 10.93 251.40 12.07L251.40 12.07ZM267.67 5.88L267.67 11.62L267.90 11.62L270.55 8.74L271.89 8.74L271.89 8.82L269.01 12.00L269.01 12.25L272.23 15.60L272.23 15.68L270.89 15.68L267.93 12.63L267.67 12.63L267.67 15.68L266.57 15.68L266.57 5.88L267.67 5.88ZM282.88 10.53L282.88 10.53Q282.88 11.03 283.31 11.30Q283.74 11.56 284.87 11.65L284.87 11.65Q286.09 11.75 286.73 12.23Q287.36 12.71 287.36 13.64L287.36 13.64L287.36 13.72Q287.36 14.22 287.16 14.62Q286.96 15.02 286.60 15.30Q286.24 15.58 285.73 15.73Q285.22 15.88 284.62 15.88L284.62 15.88Q283.81 15.88 283.23 15.66Q282.65 15.44 282.26 15.08Q281.88 14.73 281.68 14.27Q281.48 13.82 281.46 13.36L281.46 13.36L282.49 13.10Q282.56 13.90 283.11 14.38Q283.65 14.87 284.56 14.87L284.56 14.87Q285.33 14.87 285.80 14.57Q286.27 14.27 286.27 13.72L286.27 13.72Q286.27 13.13 285.81 12.88Q285.35 12.63 284.31 12.56L284.31 12.56Q283.11 12.47 282.46 12.00Q281.82 11.52 281.82 10.61L281.82 10.61L281.82 10.53Q281.82 10.04 282.03 9.67Q282.24 9.30 282.60 9.04Q282.95 8.79 283.40 8.67Q283.85 8.54 284.34 8.54L284.34 8.54Q285.03 8.54 285.54 8.73Q286.06 8.92 286.41 9.22Q286.76 9.52 286.95 9.91Q287.14 10.30 287.20 10.70L287.20 10.70L286.16 10.95Q286.09 10.28 285.62 9.90Q285.15 9.52 284.40 9.52L284.40 9.52Q284.10 9.52 283.83 9.58Q283.56 9.65 283.35 9.77Q283.14 9.90 283.01 10.09Q282.88 10.28 282.88 10.53Z"/></g></svg>